<?xml version="1.0" encoding="utf-8"?>
<!-- Generated by IcoMoon.io -->
<!DOCTYPE svg PUBLIC "-//W3C//DTD SVG 1.1//EN" "http://www.w3.org/Graphics/SVG/1.1/DTD/svg11.dtd">
<svg version="1.1" xmlns="http://www.w3.org/2000/svg" xmlns:xlink="http://www.w3.org/1999/xlink" width="560" height="512" viewBox="0 0 560 512"><g id="icomoon-ignore">
</g>
<path d="M352 0c-88.365 0-160 71.634-160 160 0 10.013 0.929 19.808 2.688 29.312l-194.688 194.688v96c0 17.673 14.327 32 32 32h32v-32h64v-64h64v-64h64l41.521-41.521c17.005 6.158 35.348 9.521 54.479 9.521 88.365 0 160-71.634 160-160s-71.635-160-160-160zM399.937 160.063c-26.51 0-48-21.49-48-48s21.49-48 48-48 48 21.49 48 48-21.49 48-48 48z"></path>
</svg>
